PathFileType	4	(X/Y/Z)	 control3min.trc
DataRate	CameraRate	NumFrames	NumMarkers	Units	OrigDataRate	OrigDataStartFrame	OrigNumFrames
200	200	8	35	m	200	126	1000
Frame#	Time	C7			LSH			RSH			MAN			RASI			LASI			HIPR			HIPL			RPSI			LPSI			COX			RTHI1			RTHI2			RTHI3			RTHI4			RSHA1			RSHA2			RSHA3			RSHA4			RHEEL			RMET5			RMET1			RTOE			LTHI1			LTHI2			LTHI3			LTHI4			LSHA1			LSHA2			LSHA3			LSHA4			LHEEL			LMET5			LMET1			LTOE			
		X1	Y1	Z1	X2	Y2	Z2	X3	Y3	Z3	X4	Y4	Z4	X5	Y5	Z5	X6	Y6	Z6	X7	Y7	Z7	X8	Y8	Z8	X9	Y9	Z9	X10	Y10	Z10	X11	Y11	Z11	X12	Y12	Z12	X13	Y13	Z13	X14	Y14	Z14	X15	Y15	Z15	X16	Y16	Z16	X17	Y17	Z17	X18	Y18	Z18	X19	Y19	Z19	X20	Y20	Z20	X21	Y21	Z21	X22	Y22	Z22	X23	Y23	Z23	X24	Y24	Z24	X25	Y25	Z25	X26	Y26	Z26	X27	Y27	Z27	X28	Y28	Z28	X29	Y29	Z29	X30	Y30	Z30	X31	Y31	Z31	X32	Y32	Z32	X33	Y33	Z33	X34	Y34	Z34	X35	Y35	Z35	
126	0.6300	-0.279249	1.442562	-0.564300	-0.249024	1.413982	-0.739815	-0.230282	1.415530	-0.390468	-0.166745	1.400537	-0.569704	-0.125388	1.013338	-0.484282	-0.123378	1.019814	-0.661284	-0.190801	1.058319	-0.438713	-0.188361	1.065536	-0.701781	-0.266878	1.045637	-0.512578	-0.266722	1.047579	-0.621908	-0.274647	1.058286	-0.570229	-0.222937	0.848947	-0.403342	-0.210378	0.790892	-0.394249	-0.146596	0.799512	-0.401856	-0.150917	0.860073	-0.411451	-0.249894	0.404351	-0.360404	-0.267745	0.365030	-0.358565	-0.212302	0.346394	-0.375581	-0.199849	0.384778	-0.380362	-0.344571	0.167045	-0.407678	-0.225755	0.059173	-0.351636	-0.192974	0.059546	-0.416308	-0.173516	0.043732	-0.409009	-0.209322	0.810806	-0.750877	-0.195145	0.750871	-0.753799	-0.131880	0.759090	-0.740681	-0.138444	0.818322	-0.737121	-0.281022	0.373179	-0.752832	-0.294083	0.334780	-0.748635	-0.233276	0.320108	-0.755487	-0.227940	0.363681	-0.759054	-0.335645	0.166812	-0.697755	-0.221242	0.052353	-0.753865	-0.181303	0.061316	-0.696000	-0.163971	0.046584	-0.703804	
127	0.6350	-0.279086	1.442015	-0.564197	-0.248820	1.413397	-0.739735	-0.230304	1.414878	-0.390344	-0.166399	1.400041	-0.569611	-0.125415	1.012603	-0.484181	-0.123651	1.019127	-0.661170	-0.190702	1.057619	-0.438581	-0.188618	1.064848	-0.701593	-0.266923	1.044984	-0.512294	-0.266922	1.046928	-0.621642	-0.274772	1.057610	-0.569939	-0.222231	0.848181	-0.402922	-0.209529	0.790126	-0.393912	-0.145805	0.798832	-0.402029	-0.150254	0.859388	-0.411558	-0.249260	0.403722	-0.360444	-0.267233	0.364483	-0.358547	-0.211951	0.345662	-0.375884	-0.199387	0.383999	-0.380663	-0.345118	0.166213	-0.407526	-0.225169	0.059543	-0.351666	-0.192687	0.059939	-0.416516	-0.173036	0.044378	-0.409261	-0.208579	0.810124	-0.750936	-0.194188	0.750227	-0.753719	-0.131034	0.758665	-0.740193	-0.137827	0.817878	-0.736689	-0.280874	0.372844	-0.752359	-0.294059	0.334494	-0.748091	-0.233323	0.319595	-0.755078	-0.227836	0.363127	-0.758689	-0.336220	0.166187	-0.697073	-0.221337	0.052658	-0.754025	-0.181290	0.061507	-0.696190	-0.163894	0.046879	-0.704095	
128	0.6400	-0.278894	1.441237	-0.564090	-0.248574	1.412544	-0.739667	-0.230283	1.413975	-0.390209	-0.166094	1.399263	-0.569510	-0.125465	1.011636	-0.484081	-0.123963	1.018215	-0.661052	-0.190658	1.056674	-0.438452	-0.188937	1.063926	-0.701405	-0.267007	1.044059	-0.512011	-0.267163	1.046008	-0.621376	-0.274954	1.056653	-0.569655	-0.221450	0.847148	-0.402451	-0.208598	0.789105	-0.393583	-0.144945	0.797902	-0.402263	-0.149517	0.858456	-0.411695	-0.248597	0.402860	-0.360510	-0.266707	0.363704	-0.358548	-0.211595	0.344682	-0.376219	-0.198907	0.382971	-0.381001	-0.345747	0.165187	-0.407307	-0.224646	0.059715	-0.351772	-0.192539	0.060095	-0.416810	-0.172703	0.044770	-0.409622	-0.207801	0.809197	-0.751001	-0.193181	0.749352	-0.753634	-0.130155	0.758012	-0.739643	-0.137188	0.817203	-0.736220	-0.280697	0.372277	-0.751864	-0.294005	0.333990	-0.747538	-0.233341	0.318853	-0.754644	-0.227701	0.362347	-0.758298	-0.336823	0.165376	-0.696427	-0.221478	0.052706	-0.754085	-0.181384	0.061415	-0.696243	-0.163924	0.046873	-0.704235	
129	0.6450	-0.278672	1.440232	-0.563980	-0.248285	1.411427	-0.739612	-0.230215	1.412819	-0.390066	-0.165833	1.398207	-0.569402	-0.125538	1.010438	-0.483982	-0.124302	1.017075	-0.660930	-0.190655	1.055490	-0.438327	-0.189311	1.062770	-0.701218	-0.267120	1.042874	-0.511735	-0.267438	1.044829	-0.621113	-0.275192	1.055416	-0.569369	-0.220614	0.845862	-0.401936	-0.207609	0.787823	-0.393270	-0.144038	0.796718	-0.402555	-0.148730	0.857276	-0.411857	-0.247904	0.401772	-0.360594	-0.266161	0.362683	-0.358563	-0.211232	0.343460	-0.376585	-0.198405	0.381697	-0.381353	-0.346442	0.163984	-0.407026	-0.224192	0.059684	-0.351959	-0.192525	0.059996	-0.417195	-0.172510	0.044913	-0.410084	-0.207009	0.808030	-0.751076	-0.192160	0.748238	-0.753536	-0.129284	0.757124	-0.739032	-0.136552	0.816294	-0.735717	-0.280484	0.371482	-0.751356	-0.293914	0.333265	-0.746978	-0.233328	0.317871	-0.754189	-0.227524	0.361336	-0.757885	-0.337443	0.164386	-0.695827	-0.221660	0.052492	-0.754053	-0.181578	0.061030	-0.696155	-0.164056	0.046558	-0.704216	
130	0.6500	-0.278422	1.438999	-0.563867	-0.247961	1.410044	-0.739570	-0.230101	1.411418	-0.389917	-0.165568	1.396896	-0.569287	-0.125634	1.009004	-0.483880	-0.124660	1.015702	-0.660807	-0.190697	1.054065	-0.438203	-0.189714	1.061373	-0.701029	-0.267259	1.041420	-0.511466	-0.267741	1.043392	-0.620850	-0.275438	1.053944	-0.569088	-0.219738	0.844303	-0.401394	-0.206575	0.786278	-0.392975	-0.143102	0.795280	-0.402899	-0.147910	0.855855	-0.412044	-0.247181	0.400448	-0.360688	-0.265590	0.361432	-0.358594	-0.210852	0.341985	-0.376988	-0.197877	0.380180	-0.381722	-0.347202	0.162593	-0.406675	-0.223815	0.059434	-0.352224	-0.192647	0.059633	-0.417671	-0.172460	0.044792	-0.410650	-0.206225	0.806621	-0.751155	-0.191148	0.746885	-0.753429	-0.128444	0.755992	-0.738369	-0.135941	0.815141	-0.735189	-0.280222	0.370439	-0.750836	-0.293785	0.332309	-0.746415	-0.233273	0.316656	-0.753711	-0.227303	0.360088	-0.757448	-0.338067	0.163213	-0.695252	-0.221889	0.051998	-0.753918	-0.181868	0.060344	-0.695924	-0.164284	0.045921	-0.704034	
131	0.6550	-0.278148	1.437531	-0.563751	-0.247604	1.408397	-0.739540	-0.229942	1.409769	-0.389765	-0.165293	1.395332	-0.569169	-0.125748	1.007331	-0.483776	-0.125032	1.014092	-0.660686	-0.190775	1.052393	-0.438076	-0.190143	1.059732	-0.700836	-0.267421	1.039710	-0.511198	-0.268063	1.041710	-0.620586	-0.275687	1.052240	-0.568812	-0.218837	0.842482	-0.400836	-0.205516	0.784461	-0.392708	-0.142155	0.793595	-0.403290	-0.147100	0.854188	-0.412275	-0.246424	0.398891	-0.360796	-0.264989	0.359936	-0.358639	-0.210455	0.340266	-0.377421	-0.197321	0.378417	-0.382103	-0.348007	0.161024	-0.406327	-0.223511	0.058955	-0.352565	-0.192903	0.059008	-0.418242	-0.172543	0.044410	-0.411311	-0.205476	0.804970	-0.751229	-0.190168	0.745286	-0.753305	-0.127653	0.754610	-0.737667	-0.135370	0.813737	-0.734637	-0.279904	0.369153	-0.750311	-0.293615	0.331111	-0.745857	-0.233178	0.315202	-0.753207	-0.227036	0.358598	-0.756985	-0.338688	0.161875	-0.694707	-0.222148	0.051228	-0.753692	-0.182253	0.059336	-0.695551	-0.164609	0.044955	-0.703695	
132	0.6600	-0.277850	1.435825	-0.563633	-0.247215	1.406487	-0.739524	-0.229744	1.407882	-0.389600	-0.165109	1.393474	-0.569046	-0.125877	1.005418	-0.483671	-0.125412	1.012246	-0.660570	-0.190882	1.050477	-0.437949	-0.190591	1.057852	-0.700639	-0.267599	1.037749	-0.510931	-0.268402	1.039782	-0.620322	-0.275966	1.050264	-0.568538	-0.217928	0.840407	-0.400272	-0.204442	0.782389	-0.392474	-0.141211	0.791662	-0.403726	-0.146314	0.852269	-0.412542	-0.245620	0.397103	-0.360912	-0.264352	0.358197	-0.358696	-0.210037	0.338299	-0.377881	-0.196734	0.376402	-0.382507	-0.348853	0.159265	-0.405984	-0.223284	0.058234	-0.352985	-0.193285	0.058121	-0.418907	-0.172762	0.043761	-0.412071	-0.204772	0.803070	-0.751280	-0.189244	0.743438	-0.753156	-0.126925	0.752966	-0.736939	-0.134846	0.812078	-0.734066	-0.279545	0.367639	-0.749792	-0.293404	0.329669	-0.745302	-0.233038	0.313511	-0.752678	-0.226722	0.356869	-0.756499	-0.339299	0.160369	-0.694177	-0.222436	0.050182	-0.753372	-0.182725	0.058010	-0.695045	-0.165029	0.043660	-0.703211	
133	0.6650	-0.277565	1.433907	-0.563503	-0.246799	1.404317	-0.739519	-0.229512	1.405756	-0.389420	-0.164919	1.391365	-0.568922	-0.126022	1.003264	-0.483567	-0.125794	1.010159	-0.660458	-0.191005	1.048316	-0.437824	-0.190994	1.055755	-0.700451	-0.267793	1.035545	-0.510661	-0.268751	1.037615	-0.620056	-0.276237	1.048059	-0.568266	-0.217027	0.838079	-0.399755	-0.203375	0.780058	-0.392268	-0.140284	0.789475	-0.404189	-0.145561	0.850094	-0.412846	-0.244766	0.395078	-0.361022	-0.263669	0.356225	-0.358757	-0.209595	0.336080	-0.378372	-0.196120	0.374140	-0.382932	-0.349743	0.157323	-0.405620	-0.223142	0.057271	-0.353475	-0.193784	0.056976	-0.419657	-0.173100	0.042854	-0.412915	-0.204124	0.800921	-0.751302	-0.188391	0.741332	-0.752981	-0.126270	0.751067	-0.736208	-0.134381	0.810163	-0.733490	-0.279138	0.365893	-0.749279	-0.293155	0.327989	-0.744753	-0.232857	0.311573	-0.752125	-0.226360	0.354899	-0.755988	-0.339899	0.158690	-0.693648	-0.222755	0.048847	-0.752963	-0.183272	0.056359	-0.694419	-0.165536	0.042028	-0.702593	
